<svg xmlns="http://www.w3.org/2000/svg" width="21" height="11" viewBox="0 0 21 11" fill="none" class="mr-3 d-none d-sm-inline-block"><path d="M15.189 8.132a.854.854 0 0 1-.463-.135.81.81 0 0 1-.307-.361.779.779 0 0 1 .18-.877.86.86 0 0 1 .908-.175c.152.061.283.164.374.297a.786.786 0 0 1-.104 1.015.85.85 0 0 1-.588.236zm-9.205 0a.854.854 0 0 1-.463-.135.811.811 0 0 1-.307-.361.779.779 0 0 1 .18-.877.86.86 0 0 1 .908-.175c.152.061.282.164.374.297a.785.785 0 0 1-.104 1.015.849.849 0 0 1-.588.236zm9.503-4.845L17.152.502a.325.325 0 0 0-.025-.37.343.343 0 0 0-.23-.129.358.358 0 0 0-.256.066.337.337 0 0 0-.089.098l-1.685 2.82a10.581 10.581 0 0 0-4.281-.885c-1.544 0-2.992.317-4.28.885L4.62.167a.338.338 0 0 0-.21-.156.358.358 0 0 0-.364.12.33.33 0 0 0-.069.247c.006.044.02.086.043.124l1.665 2.785C2.827 4.788.872 7.583.586 10.885h20c-.286-3.302-2.24-6.097-5.099-7.598" fill="#fff"></path></svg>