<svg xmlns="http://www.w3.org/2000/svg" width="19" height="22" viewBox="0 0 19 22" fill="none" class="mr-3 d-none d-sm-inline-block"><path d="M15.769 11.58a4.947 4.947 0 0 1 2.356-4.152 5.066 5.066 0 0 0-3.99-2.157c-1.68-.177-3.308 1.004-4.164 1.004-.872 0-2.19-.987-3.608-.958A5.315 5.315 0 0 0 1.89 8.045c-1.934 3.349-.491 8.27 1.361 10.976.927 1.326 2.01 2.806 3.428 2.754 1.387-.058 1.905-.885 3.58-.885 1.658 0 2.144.885 3.59.851 1.489-.024 2.426-1.331 3.32-2.669a10.96 10.96 0 0 0 1.52-3.092 4.782 4.782 0 0 1-2.92-4.4zM13.037 3.49A4.873 4.873 0 0 0 14.152 0a4.958 4.958 0 0 0-3.208 1.66A4.638 4.638 0 0 0 9.8 5.02a4.1 4.1 0 0 0 3.237-1.53z" fill="#fff"></path></svg>